PathFileType	4	(X/Y/Z)	/Users/itak/Documents/Research/Walk-IL/dataset/trc/00376_00012.trc
DataRate	CameraRate	NumFrames	NumMarkers	Units	OrigDataRate	OrigDataStartFrame	OrigNumFrames
100.000000	100.000000	4	56	mm	100.000000	248	398
Frame#	Time	RPSI			LPSI			L3			STRN			T10			C7			CLAV			RBAK			LBAK			LSHO			LUPA			LAEL			LAOL			LWTS			LWPS			LFRA			LIFD			LHPS			LHTS			RSHO			RUPA			RAEL			RAOL			RWPS			RFRA			RIFD			RHTS			RHPS			RBHD			LFHD			RFHD			LBHD			LHIP			RHIP			RASI			LASI			LKNE			LTHI			LANK			LTIP			LTOE			LMT1			LMT5			LHEE			RKNE			RTHI			RANK			RTIP			RTOE			RMT1			RMT5			RHEE			RWTS			*53			*54			*55			
		X1	Y1	Z1	X2	Y2	Z2	X3	Y3	Z3	X4	Y4	Z4	X5	Y5	Z5	X6	Y6	Z6	X7	Y7	Z7	X8	Y8	Z8	X9	Y9	Z9	X10	Y10	Z10	X11	Y11	Z11	X12	Y12	Z12	X13	Y13	Z13	X14	Y14	Z14	X15	Y15	Z15	X16	Y16	Z16	X17	Y17	Z17	X18	Y18	Z18	X19	Y19	Z19	X20	Y20	Z20	X21	Y21	Z21	X22	Y22	Z22	X23	Y23	Z23	X24	Y24	Z24	X25	Y25	Z25	X26	Y26	Z26	X27	Y27	Z27	X28	Y28	Z28	X29	Y29	Z29	X30	Y30	Z30	X31	Y31	Z31	X32	Y32	Z32	X33	Y33	Z33	X34	Y34	Z34	X35	Y35	Z35	X36	Y36	Z36	X37	Y37	Z37	X38	Y38	Z38	X39	Y39	Z39	X40	Y40	Z40	X41	Y41	Z41	X42	Y42	Z42	X43	Y43	Z43	X44	Y44	Z44	X45	Y45	Z45	X46	Y46	Z46	X47	Y47	Z47	X48	Y48	Z48	X49	Y49	Z49	X50	Y50	Z50	X51	Y51	Z51	X52	Y52	Z52	X53	Y53	Z53	X54	Y54	Z54	X55	Y55	Z55	X56	Y56	Z56	

249	2.48	749.8289184570312	924.3375244140625	176.3438415527344	726.8309936523438	923.3071899414062	47.55280303955078	733.0901489257812	1000.85595703125	111.044059753418	949.9612426757812	1168.956298828125	94.50224304199219	706.7805786132812	1102.009399414062	103.9865570068359	726.1936645507812	1352.869262695312	94.57762145996094	885.2206420898438	1281.833740234375	99.80718994140625	690.3063354492188	1201.31591796875	151.4981536865234	710.6971435546875	1319.182495117188	-9.331870079040527	797.5955200195312	1341.9794921875	-58.73465728759766	784.8323974609375	1222.199829101562	-130.0812225341797	839.7591552734375	1038.483642578125	-164.1623077392578	793.3873291015625	996.25244140625	-103.3658447265625	1043.397583007812	964.8053588867188	-144.9653625488281	1014.756713867188	917.334716796875	-206.7981109619141	905.1005249023438	975.9518432617188	-181.8545532226562	1187.801391601562	861.7217407226562	-170.4624328613281	1093.279174804688	877.9822387695312	-208.6958923339844	1128.412963867188	924.8662719726562	-179.038330078125	778.5060424804688	1324.961669921875	252.508544921875	754.083984375	1261.89892578125	299.3152770996094	687.14501953125	1010.151123046875	306.3469848632812	704.5542602539062	1007.366455078125	209.4644622802734	696.2880249023438	771.9149780273438	342.9673156738281	688.2913208007812	942.1073608398438	324.4724731445312	705.1859741210938	604.6998901367188	286.8690490722656	737.6149291992188	664.3070068359375	315.8564758300781	674.7272338867188	685.5873413085938	335.664306640625	757.9280395507812	1533.461181640625	193.6483459472656	894.8853149414062	1557.349609375	49.86787414550781	889.3428344726562	1555.835327148438	173.4424591064453	748.1464233398438	1532.389770507812	32.3894157409668	789.7452392578125	918.5267944335938	-84.32656860351562	854.338134765625	907.8451538085938	273.0981750488281	971.4607543945312	927.8745727539062	193.1873931884766	911.6015625	915.0200805664062	-66.24320220947266	785.4247436523438	428.8819274902344	-43.07190322875977	797.2946166992188	570.8720092773438	-62.46401596069336	488.5500793457031	80.3416748046875	11.23373699188232	631.2255859375	245.6432952880859	-27.57128715515137	682.803955078125	32.92472457885742	97.89009094238281	607.048828125	53.90852355957031	114.6980895996094	605.82470703125	35.90109634399414	12.08934116363525	449.0422668457031	106.8409423828125	61.69440841674805	1059.9697265625	463.11474609375	218.7062530517578	986.4928588867188	711.9631958007812	252.8894348144531	1143.894897460938	44.40678024291992	183.6062622070312	1109.28466796875	346.5576171875	200.9591827392578	1314.518676757812	45.04741668701172	102.2985610961914	1238.458984375	43.9718017578125	80.89128875732422	1228.834228515625	37.47792434692383	180.1314392089844	1069.207153320312	27.32530975341797	133.3867950439453	757.3843994140625	769.6936645507812	301.0090942382812	nan	nan	nan	nan	nan	nan	nan	nan	nan	
250	2.49	761.1271362304688	925.9313354492188	176.8368225097656	738.666015625	923.2852783203125	47.91844177246094	744.8605346679688	1001.558654785156	111.1287689208984	960.250244140625	1170.30810546875	94.26130676269531	717.2056884765625	1102.576904296875	104.417350769043	735.8564453125	1353.43505859375	95.11350250244141	895.1441650390625	1282.963745117188	99.83201599121094	700.7861938476562	1201.747924804688	152.1431884765625	720.1895141601562	1319.74853515625	-8.745266914367676	806.8858642578125	1342.858642578125	-58.36560821533203	794.1077270507812	1223.103637695312	-129.5839080810547	849.3394775390625	1038.821411132812	-164.0240325927734	802.8275756835938	997.5048217773438	-102.6824111938477	1051.159057617188	956.7117309570312	-145.0747528076172	1020.253479003906	909.9226684570312	-206.3052062988281	913.5076904296875	973.2298583984375	-181.5185699462891	1190.5419921875	847.1914672851562	-170.5562896728516	1096.727905273438	867.0369873046875	-208.1035003662109	1133.966064453125	912.5838012695312	-179.0690765380859	788.6834716796875	1325.781616210938	252.8669891357422	765.0343017578125	1262.396118164062	299.8818359375	700.7581787109375	1010.084716796875	308.0564880371094	717.5631713867188	1007.245849609375	210.9696044921875	712.5625	772.1598510742188	345.2994995117188	702.6892700195312	942.080322265625	326.3465576171875	722.447998046875	604.8397216796875	289.819091796875	754.6563720703125	664.81787109375	318.3079223632812	691.7233276367188	685.6525268554688	338.5467224121094	767.273193359375	1534.039428710938	194.4401550292969	903.875732421875	1558.404907226562	50.38948440551758	898.6275024414062	1556.701904296875	173.9823608398438	757.1480712890625	1533.245239257812	33.17961120605469	801.6132202148438	917.7396240234375	-83.65592193603516	865.5200805664062	910.62744140625	273.8323974609375	982.7030029296875	930.1295776367188	194.0376739501953	923.3365478515625	914.8094482421875	-65.28891754150391	798.531005859375	428.8418884277344	-44.37459945678711	810.0753784179688	570.4288940429688	-62.40324783325195	493.2390747070312	86.55290222167969	9.046145439147949	639.618896484375	249.6365509033203	-29.31673049926758	682.9583129882812	33.0029411315918	97.69155883789062	609.3916625976562	56.08835220336914	113.2450714111328	607.694580078125	35.91831588745117	11.28235721588135	454.9786682128906	115.8025283813477	59.19533157348633	1071.2548828125	464.6916198730469	218.6256561279297	998.2014770507812	713.8234252929688	254.1629943847656	1145.600341796875	44.43704223632812	183.3219909667969	1118.497924804688	347.0321044921875	200.3250579833984	1317.018798828125	38.99734115600586	100.6834945678711	1240.190673828125	41.18373489379883	80.18069458007812	1230.246704101562	36.07852554321289	179.6977844238281	1070.353881835938	28.59314727783203	133.5023345947266	773.2655029296875	770.3128051757812	302.8262023925781	nan	nan	nan	nan	nan	nan	nan	nan	nan	
251	2.5	772.1979370117188	927.6834106445312	177.2396392822266	750.367919921875	923.4931030273438	48.20032119750977	756.4786987304688	1002.50244140625	111.1307373046875	970.470458984375	1171.998046875	94.07187652587891	727.52978515625	1103.329345703125	104.8204956054688	745.4050903320312	1354.206176757812	95.58008575439453	904.9497680664062	1284.414916992188	99.85276794433594	711.1483154296875	1202.410888671875	152.7097625732422	729.5984497070312	1320.525146484375	-8.220748901367188	816.0842895507812	1343.996337890625	-58.01411819458008	803.3699951171875	1224.346557617188	-129.2031707763672	858.8443603515625	1039.533325195312	-163.9382781982422	812.1361694335938	999.1069946289062	-102.1406173706055	1058.364135742188	948.4950561523438	-145.2403869628906	1025.067993164062	902.5485229492188	-205.8356018066406	921.631103515625	970.7422485351562	-181.2709655761719	1192.098388671875	832.4274291992188	-170.7691345214844	1099.186157226562	855.9971313476562	-207.4997711181641	1138.510375976562	899.7745361328125	-178.9466247558594	798.7489624023438	1326.915283203125	253.1711730957031	775.8767700195312	1263.262084960938	300.4081420898438	714.4375	1010.365234375	309.8749084472656	730.560302734375	1007.4482421875	212.6120758056641	729.25927734375	772.7715454101562	347.7426147460938	717.2684936523438	942.4100952148438	328.3313293457031	740.2081909179688	605.3841552734375	292.7642517089844	772.1477661132812	665.7469482421875	320.7608032226562	709.251220703125	686.078857421875	341.5387573242188	776.54345703125	1534.83251953125	195.2009124755859	912.8201293945312	1559.661743164062	50.91096878051758	907.85400390625	1557.746337890625	174.5008544921875	766.0996704101562	1534.342041015625	33.94430160522461	813.4176025390625	917.2481079101562	-82.94737243652344	876.4660034179688	913.564453125	274.5357360839844	993.7643432617188	932.7220458984375	194.9916687011719	935.0601806640625	914.9882202148438	-64.16374969482422	812.390625	429.0699462890625	-46.02109909057617	823.3394775390625	570.2103271484375	-62.5526008605957	498.7968139648438	93.26968383789062	6.357151985168457	648.8463134765625	253.9937896728516	-31.42439842224121	683.1036376953125	33.08514022827148	97.46826171875	612.0830078125	58.39116668701172	111.5531463623047	609.8494262695312	35.99220275878906	10.3241662979126	462.00732421875	125.2459106445312	56.15164566040039	1082.0771484375	466.159423828125	218.6403656005859	1009.787536621094	715.7907104492188	255.4754486083984	1146.998168945312	44.60641479492188	183.1349182128906	1127.090087890625	347.4258728027344	199.8627624511719	1318.933959960938	34.21207809448242	99.46866607666016	1241.483764648438	39.08747863769531	79.71893310546875	1231.333740234375	35.24949645996094	179.4991912841797	1071.353271484375	29.63514137268066	133.6549682617188	789.5181274414062	771.3726196289062	304.6923828125	nan	nan	nan	nan	nan	nan	nan	nan	nan	
252	2.51	783.051025390625	929.498046875	177.6121520996094	761.8480224609375	923.89306640625	48.46152877807617	767.8765258789062	1003.626831054688	111.1165542602539	980.609375	1173.948974609375	93.94083404541016	737.7880859375	1104.214477539062	105.2123947143555	754.8303833007812	1355.1279296875	95.97791290283203	914.63916015625	1286.122314453125	99.87014007568359	721.376220703125	1203.248291015625	153.2115783691406	738.9180297851562	1321.447631835938	-7.757258892059326	825.1874389648438	1345.31787109375	-57.68299102783203	812.6226806640625	1225.842895507812	-128.9382934570312	868.2390747070312	1040.530639648438	-163.8672943115234	821.2793579101562	1000.941955566406	-101.7190475463867	1064.958618164062	940.247314453125	-145.4376373291016	1029.18017578125	895.322021484375	-205.3828277587891	929.42919921875	968.5049438476562	-181.09228515625	1192.329956054688	817.4609375	-170.9377746582031	1100.635620117188	845.0332641601562	-206.8919219970703	1142.013671875	886.6300048828125	-178.6689147949219	808.7007446289062	1328.303833007812	253.4225769042969	786.598876953125	1264.444091796875	300.9019775390625	728.1319580078125	1010.948974609375	311.8056335449219	743.4750366210938	1007.919128417969	214.4058380126953	746.2922973632812	773.7140502929688	350.2723693847656	731.967529296875	943.0584106445312	330.4227294921875	758.4935913085938	606.3006591796875	295.7053527832031	790.1043701171875	667.08837890625	323.2430419921875	727.2628173828125	686.8226928710938	344.6051330566406	785.728271484375	1535.791259765625	195.9175720214844	921.7135009765625	1561.074462890625	51.4232177734375	917.0078735351562	1558.91845703125	174.9871826171875	774.9957275390625	1535.631713867188	34.67360305786133	825.0565185546875	917.04541015625	-82.18936157226562	887.2002563476562	916.511962890625	275.2556762695312	1004.630432128906	935.5077514648438	196.0265808105469	946.6616821289062	915.52294921875	-62.91876983642578	826.9931030273438	429.5120544433594	-47.9141845703125	837.0758666992188	570.1629028320312	-62.88318252563477	505.273681640625	100.4587097167969	3.208426237106323	658.9568481445312	258.6256103515625	-33.8448371887207	683.2922973632812	33.13107681274414	97.19556427001953	615.164794921875	60.84842681884766	109.6463470458984	612.3234252929688	36.21765899658203	9.200307846069336	470.1952514648438	135.0598297119141	52.60182189941406	1092.272094726562	467.4271545410156	218.6949615478516	1021.1953125	717.7553100585938	256.75439453125	1148.110473632812	44.87080001831055	182.9965667724609	1135.015380859375	347.6867980957031	199.5171813964844	1320.359008789062	30.63442039489746	98.59575653076172	1242.401611328125	37.54109573364258	79.42532348632812	1232.145141601562	34.87119674682617	179.4229431152344	1072.198608398438	30.49971961975098	133.815673828125	806.0838623046875	772.854248046875	306.6209106445312	nan	nan	nan	nan	nan	nan	nan	nan	nan	
